<?xml version="1.0" encoding="UTF-8" standalone="no"?>
<svg
   width="422"
   height="422.00003"
   viewBox="0 0 422 422.00003"
   fill="none"
   version="1.1"
   id="svg4"
   xmlns="http://www.w3.org/2000/svg"
   xmlns:svg="http://www.w3.org/2000/svg">
  <path
     d="M 210.99994,8.4129078e-6 A 211,211 0 0 0 -6.09375e-5,211.00001 a 211,211 0 0 0 211.0000009375,211 211,211 0 0 0 211,-211 211,211 0 0 0 -13.2754,-73.66211 l -106.3281,61.39063 a 87.5,87.5 0 0 1 0.5859,10.10937 87.5,87.5 0 0 1 -87.5,87.5 87.5,87.5 0 0 1 -87.5,-87.5 87.5,87.5 0 0 1 87.5,-87.5 87.5,87.5 0 0 1 50.4629,16.01758 L 372.85344,75.632819 A 211,211 0 0 0 210.99994,8.4129078e-6 Z"
     style="fill:#f24b37"
     id="path6" />
  <defs
     id="defs4" />
</svg>
